session1_knee.mot
version=1
nRows=251
nColumns=2
inDegrees=yes
endheader
time	knee_angle_r
14.966897	6.048141
14.986830	5.967811
14.988040	5.836028
14.990496	5.730761
14.993901	5.637274
14.996970	5.542547
15.004359	5.328819
15.005361	5.245648
15.010033	5.161901
15.012638	5.106481
15.015191	5.049470
15.020613	4.967001
15.021380	4.998002
15.023431	5.008547
15.026415	5.039740
15.029803	5.078514
15.032893	5.142370
15.036103	5.218043
15.039184	5.300644
15.041649	5.406600
15.044847	5.499509
15.048094	5.574445
15.052485	5.741778
15.054688	5.842459
15.058112	5.940836
15.060129	6.033400
15.064187	6.105027
15.066254	6.166207
15.070995	6.288854
15.080782	6.303485
15.083891	6.297951
15.087979	6.288800
15.090144	6.272749
15.093188	6.250332
15.096463	6.232953
15.098447	6.219637
15.103048	6.230714
15.106242	6.238060
15.107220	6.219941
15.110293	6.239607
15.114757	6.272504
15.117893	6.333505
15.122405	6.471055
15.125456	6.583997
15.128676	6.805754
15.132783	6.998219
15.136076	7.205451
15.139496	7.561715
15.141893	7.807258
15.143937	7.971231
15.147027	8.263865
15.150549	8.576969
15.154231	8.922324
15.157636	9.494483
15.158610	9.664643
15.161896	10.050830
15.165026	10.449495
15.168327	10.883587
15.171334	11.298973
15.183109	12.630756
15.185225	13.079225
15.186225	13.556464
15.189250	14.120265
15.192440	14.604378
15.194791	15.100430
15.197995	15.640787
15.201011	16.151146
15.205049	16.666500
15.208022	17.184217
15.222097	19.590674
15.223065	19.655465
15.224975	20.149311
15.229023	20.665431
15.231720	21.132868
15.234569	21.605876
15.238924	22.124784
15.239979	22.580995
15.244170	23.044019
15.247207	23.557727
15.248574	24.008285
15.253156	24.506476
15.255364	24.948633
15.258667	25.449081
15.261366	25.864858
15.264949	26.302529
15.267546	26.772850
15.271704	27.195473
15.277483	28.062915
15.285254	29.975727
15.287164	29.711112
15.292289	30.092444
15.294238	30.605399
15.296975	30.504183
15.299799	30.990900
15.302409	31.479129
15.305513	31.916923
15.310009	32.935591
15.311892	33.376147
15.315308	33.813019
15.317534	34.310643
15.321703	34.733413
15.324387	35.175541
15.326313	35.111357
15.330309	36.154004
15.333174	36.611515
15.335059	36.564522
15.338018	37.080880
15.342403	38.052857
15.345000	38.566393
15.348103	39.044169
15.350637	39.026550
15.355704	40.095318
15.357422	40.639430
15.359738	41.149610
15.361929	41.147863
15.365725	41.683014
15.369174	42.827434
15.372261	43.385963
15.374506	43.406361
15.377711	44.032499
15.390005	47.268571
15.392768	47.282888
15.395308	47.283913
15.399029	48.394427
15.401520	48.933401
15.405608	49.517500
15.407304	49.499196
15.410947	50.577586
15.413669	51.102872
15.417068	51.652186
15.419550	51.632814
15.422485	52.150911
15.425327	52.637535
15.428980	53.257864
15.430864	53.251734
15.434614	54.614367
15.438621	55.168352
15.439824	55.652619
15.443552	56.203452
15.445225	56.744357
15.449622	57.254948
15.452104	57.728630
15.455273	58.310152
15.458407	58.845945
15.461859	59.361174
15.464356	59.847476
15.468269	60.427261
15.471673	60.931092
15.474371	61.478559
15.477072	62.594821
15.479404	62.593715
15.489718	64.743295
15.490948	64.756477
15.494181	65.282174
15.496890	65.894882
15.499408	66.425226
15.502344	66.954978
15.506196	66.969036
15.508670	68.019772
15.513885	68.546791
15.515311	68.562908
15.518064	69.637429
15.521185	70.185186
15.523837	70.685244
15.528022	71.279787
15.531453	71.856310
15.532404	72.377301
15.536218	72.959528
15.539571	73.468401
15.542213	73.957888
15.544628	74.527094
15.549861	75.567375
15.551052	75.584930
15.555549	76.625823
15.557650	76.646284
15.561398	77.624493
15.564206	77.634488
15.566844	78.194716
15.569726	78.652362
15.574241	79.110559
15.576963	79.611223
15.578137	80.040327
15.581943	80.495110
15.592882	81.857030
15.596786	82.800152
15.599347	83.243483
15.601636	83.682303
15.605480	84.159884
15.608417	84.563028
15.611213	84.993027
15.613456	85.425508
15.617305	85.907223
15.619915	86.343241
15.624113	86.775617
15.626195	87.265405
15.628498	87.707864
15.632688	88.153798
15.635861	88.646793
15.639672	89.099949
15.640652	89.522355
15.645511	90.061036
15.647486	90.517422
15.650579	90.972255
15.653394	91.419430
15.657064	91.900356
15.660262	92.308160
15.662663	92.737339
15.666385	93.175185
15.669040	93.564655
15.672553	93.939960
15.675163	94.335983
15.677856	94.730214
15.680123	95.088231
15.684421	95.429248
15.699013	96.986386
15.701494	97.268058
15.705865	97.601151
15.707587	97.837647
15.710415	98.092780
15.712877	98.328717
15.716690	98.589552
15.720801	99.101718
15.722018	99.061843
15.725853	99.326219
15.728775	99.560981
15.731673	99.804912
15.734415	100.083660
15.739242	100.347311
15.740437	100.606872
15.743188	100.929294
15.747222	101.276154
15.750042	101.610919
15.753826	101.949784
15.755723	102.328398
15.758380	102.671130
15.762120	103.014182
15.765826	103.400776
15.769809	104.027445
15.772674	104.419453
15.773902	104.479742
15.776823	104.837147
15.780389	105.178497
15.783210	105.520436
15.786264	105.883529
15.789044	106.229608
15.801100	107.465547
15.802313	107.503015
15.804212	107.864932
15.806601	108.170618
15.810605	108.739472
15.813526	109.087079
